#!OML:ASF Y:\EmotionMaleHayes\Project 1\Capture day 1\Session 1\Male1.ASF
:FULLY-SPECIFIED
:DEGREES
271
root 48.5859 17.3827 -1.56857 373.254 83.9345 380.635
lowerback 11.7276 1.84722 -1.5792
upperback 1.90435 2.30526 -0.303047
thorax -4.62583 1.18951 0.213076
lowerneck -26.8108 2.46607 2.47382
upperneck 19.2728 2.95818 -1.99999
head 10.6646 1.28062 -0.636034
rclavicle -7.51965e-015 2.98177e-015
rhumerus -38.9237 15.8045 -90.7703
rradius 75.2949
rwrist -21.9944
rhand -19.0269 -30.6505
rfingers 7.12502
rthumb 7.27922 -60.5052
lclavicle -7.51965e-015 2.98177e-015
lhumerus -43.5107 -22.382 95.2228
lradius 33.7033
lwrist -16.0671
lhand -6.64055 -17.8743
lfingers 7.12502
lthumb 19.2165 11.1963
rfemur 3.1944 2.60716 18.0318
rtibia 14.3303
rfoot -5.00163 -3.57246
rtoes 22.4275
lfemur 0.885356 10.5711 -15.455
ltibia 36.8934
lfoot -18.4428 3.91644
ltoes -10.858
272
root 48.6266 17.3929 -1.58379 376.544 83.6619 383.845
lowerback 11.5467 1.87316 -1.9888
upperback 1.88843 2.28549 -0.444256
thorax -4.55197 1.18493 0.304759
lowerneck -26.9549 2.46917 2.57693
upperneck 19.433 2.92898 -2.02728
head 10.7505 1.27023 -0.666348
rclavicle -1.87883e-014 1.6201e-014
rhumerus -38.2353 16.4134 -90.6738
rradius 75.8845
rwrist -21.8941
rhand -20.4991 -29.3293
rfingers 7.12502
rthumb 5.858 -59.2283
lclavicle -1.87883e-014 1.6201e-014
lhumerus -44.2164 -22.4413 95.1088
lradius 33.1007
lwrist -15.4353
lhand -6.84137 -18.22
lfingers 7.12502
lthumb 19.0234 10.8697
rfemur 3.49452 2.59425 17.4174
rtibia 13.8143
rfoot -4.91844 -3.37167
rtoes 22.3724
lfemur 1.21457 10.4948 -16.0958
ltibia 35.0631
lfoot -18.5087 4.2021
ltoes -10.0638
273
root 48.668 17.393 -1.58803 372.562 83.4162 380.03
lowerback 11.3745 1.89121 -1.89812
upperback 2.1148 2.33987 -0.279699
thorax -4.22446 1.21063 0.427784
lowerneck -26.9045 2.61319 2.78314
upperneck 19.181 3.0639 -2.11754
head 10.6571 1.33611 -0.710569
rclavicle -1.12034e-014 -7.95139e-015
rhumerus -37.1501 17.3249 -90.4429
rradius 76.2539
rwrist -22.0429
rhand -21.3772 -28.4117
rfingers 7.12502
rthumb 5.01018 -58.3324
lclavicle -1.12034e-014 -7.95139e-015
lhumerus -44.545 -22.0315 94.7226
lradius 32.5942
lwrist -14.7519
lhand -6.39776 -18.5162
lfingers 7.12502
lthumb 19.45 10.531
rfemur 4.13416 3.28225 17.9927
rtibia 13.1933
rfoot -4.97475 -3.72612
rtoes 22.5075
lfemur 1.97211 10.5501 -15.5636
ltibia 33.1839
lfoot -18.6466 4.40032
ltoes -9.25592
274
root 48.6878 17.3965 -1.61294 370.026 83.288 377.356
lowerback 11.2544 1.85858 -1.53455
upperback 2.14775 2.34368 -0.25469
thorax -4.11064 1.2074 0.254061
lowerneck -26.9189 2.67594 2.83483
upperneck 19.0736 3.07953 -1.93626
head 10.6178 1.37058 -0.650558
rclavicle 2.53978e-014 -4.07509e-015
rhumerus -35.9498 18.2124 -90.2365
rradius 76.2725
rwrist -22.1666
rhand -21.3474 -28.7086
rfingers 7.12502
rthumb 5.03893 -58.6287
lclavicle 2.53978e-014 -4.07509e-015
lhumerus -44.9764 -21.7145 94.3291
lradius 32.2104
lwrist -14.0951
lhand -6.10909 -18.7759
lfingers 7.12502
lthumb 19.7275 10.243
rfemur 4.19539 3.23672 18.1715
rtibia 12.914
rfoot -4.93683 -3.49314
rtoes 22.7044
lfemur 2.17046 10.3706 -15.4519
ltibia 31.5331
lfoot -19.0081 4.69602
ltoes -9.51436
275
root 48.7116 17.3938 -1.63588 374.797 83.0962 382.022
lowerback 11.0714 1.85931 -2.07433
upperback 2.18436 2.27952 -0.438717
thorax -3.98309 1.18122 0.382061
lowerneck -27.1761 2.71751 2.93904
upperneck 19.2585 3.09047 -1.93296
head 10.7329 1.38163 -0.661988
rclavicle 2.17421e-017 5.46658e-015
rhumerus -34.7418 18.9999 -89.9343
rradius 76.2436
rwrist -22.3265
rhand -21.3548 -28.7989
rfingers 7.12502
rthumb 5.03176 -58.7191
lclavicle 2.17421e-017 5.46658e-015
lhumerus -45.4361 -21.4362 94.0185
lradius 31.7922
lwrist -13.6965
lhand -5.99057 -19.1458
lfingers 7.12502
lthumb 19.8414 9.86144
rfemur 4.22838 2.91499 17.215
rtibia 12.7233
rfoot -4.99812 -3.01015
rtoes 22.8175
lfemur 2.38201 10.0935 -16.4338
ltibia 29.7804
lfoot -19.2229 4.91611
ltoes -9.36277
276
root 48.7381 17.3822 -1.64012 368.918 82.7415 376.079
lowerback 11.2155 1.97797 -1.64619
upperback 2.00828 2.48414 -0.241342
thorax -4.24264 1.27736 0.308061
lowerneck -26.8095 2.86691 3.26648
upperneck 19.179 3.23265 -2.13756
head 10.6533 1.44809 -0.768351
rclavicle -2.48791e-015 -1.49089e-015
rhumerus -34.071 19.5812 -89.7439
rradius 76.4265
rwrist -22.7659
rhand -20.9706 -29.199
rfingers 7.12502
rthumb 5.40269 -59.1101
lclavicle -2.48791e-015 -1.49089e-015
lhumerus -46.2985 -21.0656 93.8487
lradius 31.3042
lwrist -13.5962
lhand -5.88515 -19.5049
lfingers 7.12502
lthumb 19.9428 9.49179
rfemur 4.33329 3.71579 18.1351
rtibia 12.5947
rfoot -5.31486 -3.15759
rtoes 24.2488
lfemur 2.90832 10.1609 -15.594
ltibia 27.9138
lfoot -18.7807 5.11423
ltoes -9.36451
277
root 48.767 17.3785 -1.67949 369.219 82.8649 376.087
lowerback 10.8222 1.85291 -1.39536
upperback 1.98906 2.35111 -0.267232
thorax -4.03164 1.20672 0.173442
lowerneck -26.5186 3.00419 3.83199
upperneck 18.8431 3.31054 -2.55306
head 10.5002 1.47491 -0.999901
rclavicle -1.31881e-014 3.47873e-015
rhumerus -33.1019 20.3588 -89.5287
rradius 76.5112
rwrist -23.9265
rhand -21.9208 -29.3877
rfingers 7.12502
rthumb 4.48521 -59.3202
lclavicle -1.31881e-014 3.47873e-015
lhumerus -46.6778 -20.4254 93.3998
lradius 30.8192
lwrist -13.9405
lhand -5.57125 -19.6569
lfingers 7.12502
lthumb 20.2445 9.3081
rfemur 4.41962 2.93112 17.7558
rtibia 12.1388
rfoot -5.2273 -2.40457
rtoes 25.1747
lfemur 3.06627 9.49316 -16.0718
ltibia 26.0058
lfoot -17.7119 5.25942
ltoes -10.5477
278
root 48.7913 17.3667 -1.69186 374.73 82.5308 381.65
lowerback 10.6028 1.88923 -2.42013
upperback 2.15998 2.29057 -0.416972
thorax -3.76404 1.18792 0.612406
lowerneck -27.1424 2.86057 3.27708
upperneck 19.1683 3.12543 -1.82857
head 10.6985 1.43725 -0.673075
rclavicle 9.68143e-015 -2.78299e-015
rhumerus -31.5963 20.8233 -88.9881
rradius 76.2039
rwrist -22.7392
rhand -20.6214 -29.9518
rfingers 7.12502
rthumb 5.73986 -59.854
lclavicle 9.68143e-015 -2.78299e-015
lhumerus -46.8203 -19.6882 92.8016
lradius 30.361
lwrist -14.1738
lhand -5.4864 -19.799
lfingers 7.12502
lthumb 20.326 9.1573
rfemur 4.81908 3.1098 16.7407
rtibia 11.5049
rfoot -5.29279 -2.36328
rtoes 25.6921
lfemur 3.48962 8.93412 -17.1884
ltibia 24.1544
lfoot -16.419 5.36816
ltoes -9.21361
279
root 48.8343 17.3477 -1.72699 375.247 82.3231 382.2
lowerback 10.2924 1.82092 -2.42906
upperback 2.25052 2.20787 -0.511526
thorax -3.49227 1.14479 0.5429
lowerneck -26.9705 3.01522 3.51597
upperneck 19.0727 3.26331 -1.88211
head 10.6426 1.51254 -0.709497
rclavicle -4.68076e-015 -6.95746e-016
rhumerus -30.296 21.2955 -88.6314
rradius 75.7402
rwrist -21.5408
rhand -18.5496 -30.7804
rfingers 7.12502
rthumb 7.73987 -60.6187
lclavicle -4.68076e-015 -6.95746e-016
lhumerus -47.1531 -18.9686 92.2566
lradius 29.8489
lwrist -14.0776
lhand -5.46784 -20.0246
lfingers 7.12502
lthumb 20.3439 8.9298
rfemur 5.26683 2.16449 16.0881
rtibia 10.9665
rfoot -5.14161 -1.19086
rtoes 25.0502
lfemur 4.24729 8.35549 -17.7609
ltibia 22.0068
lfoot -15.1929 5.46101
ltoes -4.40854
280
root 48.8511 17.3273 -1.73692 371.078 82.2175 378.014
lowerback 10.5538 1.8206 -2.13695
upperback 2.01861 2.22821 -0.333311
thorax -3.87544 1.15365 0.547856
lowerneck -26.5448 3.05007 3.80122
upperneck 19.1492 3.28044 -2.11043
head 10.6069 1.51662 -0.839047
rclavicle -1.42566e-014 4.17448e-015
rhumerus -29.5682 21.8026 -88.453
rradius 75.3369
rwrist -20.9881
rhand -17.4926 -31.2812
rfingers 7.12502
rthumb 8.75997 -61.0794
lclavicle -1.42566e-014 4.17448e-015
lhumerus -47.8347 -18.1759 91.8162
lradius 29.396
lwrist -13.9851
lhand -5.12331 -20.1551
lfingers 7.12502
lthumb 20.6749 8.76366
rfemur 5.4778 2.17874 16.636
rtibia 10.7258
rfoot -5.50696 -0.919608
rtoes 24.0611
lfemur 4.86301 7.95965 -17.2844
ltibia 20.1703
lfoot -14.4113 6.21807
ltoes 0.685296
281
root 48.872 17.3076 -1.75029 368.947 82.3082 375.984
lowerback 10.5588 1.73847 -2.10649
upperback 2.07685 2.13178 -0.144009
thorax -3.82106 1.10587 0.741789
lowerneck -26.6258 3.03863 3.84351
upperneck 19.3408 3.26316 -2.16308
head 10.693 1.50499 -0.866962
rclavicle -2.04034e-014 -1.88845e-015
rhumerus -28.4048 22.4247 -88.0218
rradius 74.8676
rwrist -20.6209
rhand -17.4614 -30.9915
rfingers 7.12502
rthumb 8.79007 -60.7884
lclavicle -2.04034e-014 -1.88845e-015
lhumerus -48.053 -17.2111 91.2818
lradius 28.9376
lwrist -14.0455
lhand -5.26564 -20.2803
lfingers 7.12502
lthumb 20.5382 8.65333
rfemur 5.95036 2.23673 16.9389
rtibia 10.2595
rfoot -5.96573 -0.983449
rtoes 23.3359
lfemur 5.50692 7.62783 -17.0752
ltibia 18.7452
lfoot -14.4053 8.28089
ltoes 3.69286
